<?xml version="1.0" encoding="iso-8859-1"?>
<!-- Generator: Adobe Illustrator 19.0.0, SVG Export Plug-In . SVG Version: 6.00 Build 0)  -->
<svg version="1.1" id="Capa_1" xmlns="http://www.w3.org/2000/svg" xmlns:xlink="http://www.w3.org/1999/xlink" x="0px" y="0px"
	 viewBox="0 0 512.007 512.007" style="enable-background:new 0 0 512.007 512.007;" xml:space="preserve">
<circle style="fill:#E6EFF4;" cx="256.003" cy="256.003" r="256.003"/>
<path style="fill:#B6D1DD;" d="M395.421,116.572C359.739,80.892,310.447,58.824,256,58.824
	C147.102,58.824,58.824,147.103,58.824,256c0,54.447,22.068,103.739,57.748,139.421l0,0l115.452,115.452
	C239.919,511.608,247.912,512,256,512c141.385,0,256-114.615,256-256c0-8.086-0.393-16.081-1.126-23.976L395.421,116.572z"/>
<circle style="fill:#41A0D7;" cx="256.003" cy="256.003" r="197.176"/>
<path style="fill:#FFFFFF;" d="M148.363,129.438c0.003-3.922,1.97-7.581,5.239-9.748c3.269-2.167,7.403-2.549,11.018-1.027
	l187.725,79.042c4.825,2.032,8.56,6.017,10.275,10.964c1.714,4.946,1.248,10.388-1.285,14.971l-42.47,76.85h39.507l-70.281,89.827
	l13.307-62.381l-24.952-1.247l7.486-38.26l-33.265,11.697c-3.039,1.069-6.383,0.873-9.277-0.542
	c-8.031-3.929-24.665-13.172-36.374-27.2c-1.626-1.948-2.077-4.621-1.181-6.994c0.896-2.374,3.002-4.075,5.509-4.463l61.28-9.509
	h-72.695c-3.357,0-6.567-1.405-8.843-3.872c-5.775-6.258-16.834-19.593-23.441-36.212c-1.232-3.099-0.666-6.624,1.475-9.181
	c2.141-2.556,5.51-3.726,8.777-3.06l93.48,19.055l-97.976-32.398c-4.45-1.472-8.183-4.568-10.449-8.671
	C156.023,168.154,148.344,150.816,148.363,129.438z"/>
<g>
</g>
<g>
</g>
<g>
</g>
<g>
</g>
<g>
</g>
<g>
</g>
<g>
</g>
<g>
</g>
<g>
</g>
<g>
</g>
<g>
</g>
<g>
</g>
<g>
</g>
<g>
</g>
<g>
</g>
</svg>
